<svg width="106" height="24" viewBox="0 0 106 24" fill="none" xmlns="http://www.w3.org/2000/svg">
<g id="vector">
<g id="Subtract">
<path d="M99.185 5.83012C102.112 5.83012 104.485 3.34652 104.485 0.282834C104.485 0.0345584 104.774 -0.103445 104.918 0.0939079C105.597 1.0262 106 2.1902 106 3.45271C106 6.5164 103.627 9 100.699 9C98.2132 9 96.1268 7.20839 95.5546 4.79144C95.5111 4.60802 95.724 4.48848 95.8646 4.60683C96.7731 5.37211 97.928 5.83012 99.185 5.83012Z" fill="black"/>
</g>
<path id="Union" fill-rule="evenodd" clip-rule="evenodd" d="M6.71831 7.5C8.8288 7.5 10.712 8.47775 11.9437 10.007C13.1753 8.47775 15.0585 7.5 17.169 7.5C20.8794 7.5 23.8873 10.5221 23.8873 14.25H23.8873V23.625H20.9014L20.9014 14.25C20.9014 12.1789 19.2304 10.5 17.169 10.5C15.1077 10.5 13.4366 12.1789 13.4366 14.25H13.4366V23.625H10.4507V14.25C10.4507 12.1789 8.77965 10.5 6.71831 10.5C4.65697 10.5 2.98592 12.1789 2.98592 14.25V23.625H0V14.25C0 10.5221 3.00789 7.5 6.71831 7.5Z" fill="black"/>
<path id="Subtract_2" fill-rule="evenodd" clip-rule="evenodd" d="M35.0843 24C39.6193 24 43.2956 20.3063 43.2956 15.75C43.2956 11.1937 39.6193 7.5 35.0843 7.5C30.5494 7.5 26.873 11.1937 26.873 15.75C26.873 20.3063 30.5494 24 35.0843 24ZM35.0843 21C37.9701 21 40.3096 18.6495 40.3096 15.75C40.3096 12.8505 37.9701 10.5 35.0843 10.5C32.1984 10.5 29.8589 12.8505 29.8589 15.75C29.8589 18.6495 32.1984 21 35.0843 21Z" fill="black"/>
<path id="Subtract_3" fill-rule="evenodd" clip-rule="evenodd" d="M53.7464 24C58.2814 24 61.9577 20.3063 61.9577 15.75C61.9577 11.1937 58.2814 7.5 53.7464 7.5C49.2115 7.5 45.5352 11.1937 45.5352 15.75C45.5352 20.3063 49.2115 24 53.7464 24ZM53.7465 21C56.6324 21 58.9718 18.6495 58.9718 15.75C58.9718 12.8505 56.6324 10.5 53.7465 10.5C50.8606 10.5 48.5211 12.8505 48.5211 15.75C48.5211 18.6495 50.8606 21 53.7465 21Z" fill="black"/>
<path id="Union_2" fill-rule="evenodd" clip-rule="evenodd" d="M78.38 14.25C78.38 10.5221 75.3721 7.5 71.6617 7.5C67.9512 7.5 64.9434 10.5221 64.9434 14.25V23.625H67.9293V14.25H67.9293C67.9293 12.1789 69.6004 10.5 71.6617 10.5C73.7231 10.5 75.3941 12.1789 75.3941 14.25V23.625H78.38V14.25H78.38Z" fill="black"/>
<g id="Union_3">
<path fill-rule="evenodd" clip-rule="evenodd" d="M93.9923 21.7181C93.4535 22.4611 92.7053 23.0263 91.7561 23.4169C90.8222 23.8076 89.7266 24 88.4738 24C87.364 24 86.3597 23.8557 85.463 23.5642C84.571 23.2742 83.7866 22.8782 83.112 22.3746C82.44 21.8728 81.8855 21.2964 81.4508 20.645L81.3652 20.5168L83.3762 18.4829L83.4983 18.6888C83.8159 19.2243 84.2171 19.707 84.7028 20.137C85.1844 20.5478 85.7424 20.8685 86.3785 21.0983C87.0282 21.3275 87.7495 21.4434 88.5442 21.4434C89.2493 21.4434 89.8458 21.358 90.3377 21.1922L90.3393 21.1916C90.8473 21.0254 91.2111 20.7892 91.448 20.4932L91.4486 20.4925C91.7012 20.1801 91.8287 19.8117 91.8287 19.3781C91.8287 18.9676 91.6904 18.6091 91.408 18.2949L91.4064 18.2931L91.4049 18.2913C91.1481 17.9906 90.6349 17.7329 89.8162 17.5454L86.4183 16.7632L86.4173 16.763C85.466 16.5544 84.6715 16.2557 84.0393 15.8623C83.4076 15.469 82.9298 14.9887 82.6148 14.4187L82.6137 14.4167C82.3009 13.8337 82.1458 13.186 82.1458 12.4776C82.1458 11.5567 82.3904 10.7219 82.8803 9.97853L82.8808 9.97775C83.3867 9.21849 84.11 8.62097 85.0418 8.18204C85.9785 7.7249 87.0854 7.5 88.3566 7.5C89.7709 7.5 91.0048 7.77322 92.0521 8.32708C93.0973 8.86403 93.9794 9.66031 94.6986 10.7109L94.7885 10.8424L92.8253 12.7454L92.703 12.5566C92.1217 11.6592 91.4714 11.0288 90.7562 10.652L90.7541 10.6509L90.7521 10.6497C90.0501 10.257 89.2071 10.0566 88.2159 10.0566C87.4806 10.0566 86.8898 10.1576 86.4355 10.3503C85.9757 10.5453 85.6486 10.8016 85.439 11.1122C85.2423 11.411 85.1425 11.7534 85.1425 12.1456C85.1425 12.5879 85.2886 12.9692 85.5848 13.298C85.8895 13.6191 86.4762 13.8934 87.3884 14.0967L87.389 14.0968L90.5297 14.808L90.5302 14.8081C92.045 15.1433 93.1514 15.6603 93.8144 16.3811C94.4755 17.1 94.8019 18.0091 94.8019 19.0936C94.8019 20.0939 94.5336 20.9715 93.9923 21.7181Z" fill="black"/>
</g>
</g>
</svg>
